<svg width="81" height="13" viewBox="0 0 81 13" fill="none" xmlns="http://www.w3.org/2000/svg">
<path d="M22 0H7C3.41015 0 0.5 2.91015 0.5 6.5C0.5 10.0899 3.41015 13 7 13H22C25.5899 13 28.5 10.0899 28.5 6.5C28.5 2.91015 25.5899 0 22 0Z" fill="#FD9222"/>
<path d="M48 13C51.5899 13 54.5 10.0899 54.5 6.5C54.5 2.91015 51.5899 0 48 0C44.4101 0 41.5 2.91015 41.5 6.5C41.5 10.0899 44.4101 13 48 13Z" fill="#111111" fill-opacity="0.1"/>
<path d="M74 13C77.5899 13 80.5 10.0899 80.5 6.5C80.5 2.91015 77.5899 0 74 0C70.4101 0 67.5 2.91015 67.5 6.5C67.5 10.0899 70.4101 13 74 13Z" fill="#111111" fill-opacity="0.1"/>
</svg>
